<svg xmlns="http://www.w3.org/2000/svg" xmlns:xlink="http://www.w3.org/1999/xlink" version="1.1" x="0px" y="0px" viewBox="0 0 100 125" style="enable-background:new 0 0 100 100;" xml:space="preserve"><g><path d="M84.1243286,64.975769c0.0184326-0.0441284,0.027771-0.0914307,0.0424805-0.1369629   c0.0200806-0.0621948,0.0440063-0.1226196,0.0570679-0.1876831c0.0233154-0.1143799,0.0358887-0.2313843,0.0358887-0.3498535   l-0.0039062-48.6977539c0-0.9667969-0.7832031-1.75-1.75-1.75l-7.1455078,0.0004883c-0.9667969,0-1.75,0.7836914-1.75,1.75   c0,0.9667969,0.7832031,1.75,1.75,1.75l5.3955078-0.0004883l0.0038452,45.2006836h-18.390564   c-0.9667969,0-1.75,0.7836914-1.75,1.75v18.3394165l-41.3730469,0.0028687l-0.0058594-65.2885742l42.4130859-0.0024414   c0.9667969,0,1.75-0.7836914,1.75-1.75c0-0.9667969-0.7832031-1.75-1.75-1.75l-44.1630859,0.0024414   c-0.4638672,0-0.9091797,0.1845703-1.2373047,0.5126953s-0.5126953,0.7734375-0.5126953,1.2373047l0.0058594,68.7885742   c0,0.9667969,0.7832031,1.75,1.75,1.75l44.8634033-0.0029297c0.0032959,0,0.0063477,0.0009766,0.0096436,0.0009766   c0.116333,0,0.2296753-0.0125732,0.3396606-0.0342407c0.0019531-0.0003662,0.0040283-0.0001831,0.0060425-0.0006104   c0.074646-0.0149536,0.1445312-0.0412598,0.2154541-0.0654297c0.0378418-0.0128174,0.0774536-0.0200806,0.1142578-0.0354614   c0.0490112-0.0205078,0.0928345-0.0496216,0.1394653-0.0743408c0.0549927-0.0289917,0.1118774-0.0540771,0.1636963-0.0888672   c0.0002441-0.0001831,0.0004272-0.0003662,0.0006714-0.0005493c0.0925293-0.0621948,0.1799316-0.1328735,0.2600098-0.2127075   L83.736084,65.5500488c0.085144-0.0838013,0.1618042-0.1759644,0.2283936-0.2756958   c0.0066528-0.0099487,0.0105591-0.0212402,0.0169678-0.031311C84.0357056,65.1580811,84.0852051,65.0698242,84.1243286,64.975769z    M78.2751465,66.0541992L64.1191406,80.1784058V66.0541992H78.2751465z"/></g><text x="0" y="115" fill="#000000" font-size="5px" font-weight="bold" font-family="'Helvetica Neue', Helvetica, Arial-Unicode, Arial, Sans-serif">Created by Victor A</text><text x="0" y="120" fill="#000000" font-size="5px" font-weight="bold" font-family="'Helvetica Neue', Helvetica, Arial-Unicode, Arial, Sans-serif">from the Noun Project</text></svg>