<svg xmlns="http://www.w3.org/2000/svg" xmlns:xlink="http://www.w3.org/1999/xlink" version="1.1" x="0px" y="0px" viewBox="0 0 100 125" enable-background="new 0 0 100 100" xml:space="preserve"><g><path d="M82.477,12.443c2.693,0,4.886,2.191,4.886,4.885v65.344c0,2.694-2.192,4.885-4.886,4.885H17.133   c-2.693,0-4.886-2.191-4.886-4.885V17.328c0-2.694,2.192-4.885,4.886-4.885H82.477 M82.477,10H17.133   c-4.047,0-7.328,3.281-7.328,7.328v65.344c0,4.047,3.281,7.328,7.328,7.328h65.344c4.047,0,7.328-3.281,7.328-7.328V17.328   C89.805,13.281,86.523,10,82.477,10L82.477,10z"/><path d="M42.124,59.9l-14.926-8.213v-2.681l14.926-9.3v4.5L31.843,50.15l10.281,5.269V59.9z"/><path d="M56.012,36.293L47.82,63.707h-4.164l8.192-27.413H56.012z"/><path d="M57.484,55.419l10.281-5.269l-10.281-5.944v-4.5l14.926,9.3v2.681L57.484,59.9V55.419z"/></g><text x="0" y="115" fill="#000000" font-size="5px" font-weight="bold" font-family="'Helvetica Neue', Helvetica, Arial-Unicode, Arial, Sans-serif">Created by Bernar  Novalyi</text><text x="0" y="120" fill="#000000" font-size="5px" font-weight="bold" font-family="'Helvetica Neue', Helvetica, Arial-Unicode, Arial, Sans-serif">from the Noun Project</text></svg>